<?xml version="1.0" encoding="UTF-8" standalone="no"?>
<svg
   xmlns:dc="http://purl.org/dc/elements/1.1/"
   xmlns:cc="http://creativecommons.org/ns#"
   xmlns:rdf="http://www.w3.org/1999/02/22-rdf-syntax-ns#"
   xmlns:svg="http://www.w3.org/2000/svg"
   xmlns="http://www.w3.org/2000/svg"
   xmlns:sodipodi="http://sodipodi.sourceforge.net/DTD/sodipodi-0.dtd"
   xmlns:inkscape="http://www.inkscape.org/namespaces/inkscape"
   id="svg8"
   version="1.1"
   viewBox="0 0 70.555558 24.694445"
   height="70pt"
   width="200pt"
   sodipodi:docname="zrepl.svg"
   inkscape:version="0.92.2 5c3e80d, 2017-08-06">
  <sodipodi:namedview
     pagecolor="#ffffff"
     bordercolor="#666666"
     borderopacity="1"
     objecttolerance="10"
     gridtolerance="10"
     guidetolerance="10"
     inkscape:pageopacity="0"
     inkscape:pageshadow="2"
     inkscape:window-width="2560"
     inkscape:window-height="1405"
     id="namedview10"
     showgrid="false"
     inkscape:zoom="3.1350001"
     inkscape:cx="6.2268563"
     inkscape:cy="-2.6953765"
     inkscape:window-x="0"
     inkscape:window-y="35"
     inkscape:window-maximized="1"
     inkscape:current-layer="layer1" />
  <defs
     id="defs2" />
  <metadata
     id="metadata5">
    <rdf:RDF>
      <cc:Work
         rdf:about="">
        <dc:format>image/svg+xml</dc:format>
        <dc:type
           rdf:resource="http://purl.org/dc/dcmitype/StillImage" />
        <dc:title />
      </cc:Work>
    </rdf:RDF>
  </metadata>
  <g
     transform="translate(0,-272.30556)"
     id="layer1">
    <g
       aria-label="zrepl"
       transform="matrix(0.26458334,0,0,0.26458334,0.52916655,273.36389)"
       style="font-style:normal;font-variant:normal;font-weight:bold;font-stretch:normal;font-size:40px;line-height:25px;font-family:monospace;-inkscape-font-specification:'monospace, Bold';font-variant-ligatures:normal;font-variant-caps:normal;font-variant-numeric:normal;font-feature-settings:normal;text-align:center;letter-spacing:0px;word-spacing:0px;writing-mode:lr-tb;text-anchor:middle;fill:#f8f8f8;fill-opacity:1;stroke:#f8f8f8;stroke-width:1px;stroke-linecap:butt;stroke-linejoin:miter;stroke-opacity:1"
       id="flowRoot829">
      <path
         d="m 74.504883,26.943359 11.523437,-13.125 H 74.973633 V 9.5410156 h 17.480469 v 4.4726564 l -11.503907,13.125 h 11.503907 v 4.277344 H 74.504883 Z"
         style="stroke:#f8f8f8;stroke-opacity:1;fill:#f8f8f8;fill-opacity:1"
         id="path873" />
      <path
         d="m 100.11035,9.5410156 h 5.15625 l 0.56641,3.3984374 q 0.83984,-1.875 2.57812,-2.910156 1.73828,-1.0156251 4.00391,-1.0156251 1.26953,0 2.36328,0.2734375 1.25,0.3515625 2.12891,0.8398436 v 5.449219 q -0.9375,-0.859375 -2.1875,-1.289063 -1.23047,-0.429687 -2.75391,-0.429687 -1.81641,0 -3.18359,0.625 -1.36719,0.605469 -2.10938,1.835937 -0.19531,0.3125 -0.37109,0.761719 -0.17578,0.449219 -0.27344,1.054688 -0.0977,0.566406 -0.15625,1.308593 -0.0391,0.742188 -0.0391,1.894532 v 10.078125 h -5.72266 z"
         style="stroke:#f8f8f8;stroke-opacity:1;fill:#f8f8f8;fill-opacity:1"
         id="path875" />
      <path
         d="m 132.4541,31.982422 q -2.85156,0 -4.9414,-0.722656 -2.07032,-0.742188 -3.53516,-2.226563 -2.91016,-2.96875 -2.91016,-8.4375 0,-5.371094 2.79297,-8.476562 2.79297,-3.1054691 7.65625,-3.1054691 3.10547,-0.097656 5.42969,1.2500001 2.34375,1.347656 3.59375,3.867187 1.26953,2.519532 1.17187,5.878907 v 2.324218 H 126.8877 q 0.0195,2.578125 1.52343,3.847657 1.50391,1.269531 4.47266,1.269531 1.93359,0 3.90625,-0.566406 0.89844,-0.273438 1.89453,-0.703125 0.99609,-0.429688 2.10938,-1.09375 v 5.253906 q -1.99219,0.820312 -4.0625,1.230469 -1.05469,0.214843 -2.14844,0.3125 -1.07422,0.09766 -2.12891,0.09766 z m 3.4961,-13.945313 q -0.0195,-2.285156 -1.15235,-3.4375 -1.11328,-1.152343 -3.28125,-1.152343 -2.01172,0 -3.18359,1.191406 -1.17188,1.210937 -1.38672,3.417969 z"
         style="stroke:#f8f8f8;stroke-opacity:1;fill:#f8f8f8;fill-opacity:1"
         id="path877" />
      <path
         d="m 146.45801,9.5410156 h 5.13672 l 0.5664,3.2812504 q 0.89844,-1.894532 2.36328,-2.8515629 1.42579,-0.9570312 3.45704,-0.9570312 3.71093,0 5.80078,2.9882811 1.05468,1.523438 1.5625,3.691406 0.50781,2.148438 0.50781,4.824219 0,2.851563 -0.54688,4.980469 -0.54687,2.109375 -1.54296,3.515625 -1.07422,1.523437 -2.59766,2.246094 -1.50391,0.722656 -3.28125,0.722656 -0.91797,0 -1.73828,-0.214844 -0.80078,-0.195312 -1.54297,-0.703125 -0.625,-0.410156 -1.28906,-1.09375 -0.64453,-0.703125 -1.15235,-1.640625 v 11.40625 h -5.70312 z m 9.70703,17.6757814 q 1.85547,0 2.91016,-1.796875 1.05468,-1.777344 1.05468,-4.960938 0,-3.164062 -1.05468,-4.960937 -1.05469,-1.796875 -2.91016,-1.796875 -1.83594,0 -2.92969,1.796875 -1.07422,1.777344 -1.07422,4.960937 0,3.183594 1.07422,4.960938 1.09375,1.796875 2.92969,1.796875 z"
         style="stroke:#f8f8f8;stroke-opacity:1;fill:#f8f8f8;fill-opacity:1"
         id="path879" />
      <path
         d="m 182.98145,31.572266 q -4.0625,0 -5.85938,-2.109375 -1.77734,-2.070313 -1.77734,-7.011719 V 5.4199219 h -5.80078 V 1.0253906 h 11.52343 V 22.451172 q 0,2.558594 0.80078,3.652344 0.78125,1.074218 2.71485,1.074218 h 4.57031 v 4.394532 z"
         style="stroke:#f8f8f8;stroke-opacity:1;fill:#f8f8f8;fill-opacity:1"
         id="path881" />
    </g>
    <path
       inkscape:connector-curvature="0"
       id="path837"
       d="M 26.170418,286.30982 H 43.35751"
       style="font-style:normal;font-weight:normal;font-size:medium;line-height:25px;font-family:sans-serif;letter-spacing:0px;word-spacing:0px;fill:#f8f8f8;fill-opacity:1;fill-rule:evenodd;stroke:#f8f8f8;stroke-width:0.26458335px;stroke-linecap:butt;stroke-linejoin:miter;stroke-opacity:1" />
    <g
       aria-label="ZFS replication"
       style="font-style:normal;font-weight:normal;font-size:10.58333397px;line-height:6.61458349px;font-family:sans-serif;letter-spacing:0px;word-spacing:0px;fill:#f8f8f8;fill-opacity:1;stroke:#f8f8f8;stroke-width:0.26458335px;stroke-linecap:butt;stroke-linejoin:miter;stroke-opacity:1"
       id="text820">
      <path
         d="m 14.758548,294.66467 h -3.493327 v -0.47887 l 2.652724,-3.99286 h -2.570041 v -0.565 h 3.338297 v 0.47887 l -2.652723,3.99287 h 2.72507 z"
         style="font-style:normal;font-variant:normal;font-weight:normal;font-stretch:normal;font-size:7.05555582px;font-family:sans-serif;-inkscape-font-specification:'sans-serif, Normal';font-variant-ligatures:normal;font-variant-caps:normal;font-variant-numeric:normal;font-feature-settings:normal;text-align:start;writing-mode:lr-tb;text-anchor:start;fill:#f8f8f8;fill-opacity:1;stroke:#f8f8f8;stroke-width:0.26458335px;stroke-opacity:1"
         id="path844" />
      <path
         d="M 16.353627,294.66467 H 15.71973 v -5.03673 h 2.814643 v 0.55811 h -2.180746 v 1.78456 h 2.046387 v 0.55466 h -2.046387 z"
         style="font-style:normal;font-variant:normal;font-weight:normal;font-stretch:normal;font-size:7.05555582px;font-family:sans-serif;-inkscape-font-specification:'sans-serif, Normal';font-variant-ligatures:normal;font-variant-caps:normal;font-variant-numeric:normal;font-feature-settings:normal;text-align:start;writing-mode:lr-tb;text-anchor:start;fill:#f8f8f8;fill-opacity:1;stroke:#f8f8f8;stroke-width:0.26458335px;stroke-opacity:1"
         id="path846" />
      <path
         d="m 22.241296,293.31764 q 0,0.65801 -0.475423,1.03697 -0.475424,0.37896 -1.322917,0.37896 -0.895725,0 -1.384929,-0.23771 v -0.60633 q 0.320394,0.1378 0.699355,0.21704 0.382406,0.0792 0.713135,0.0792 0.564995,0 0.850938,-0.21704 0.285943,-0.21704 0.285943,-0.596 0,-0.25149 -0.103353,-0.41341 -0.103352,-0.16192 -0.347954,-0.30317 -0.241157,-0.14125 -0.733806,-0.32039 -0.699354,-0.25494 -0.999077,-0.59945 -0.299724,-0.34795 -0.299724,-0.89572 0,-0.58911 0.440973,-0.93707 0.444417,-0.34795 1.167887,-0.34795 0.754476,0 1.388373,0.28249 l -0.19637,0.54433 q -0.647678,-0.26872 -1.205783,-0.26872 -0.447863,0 -0.7028,0.19293 -0.251492,0.19292 -0.251492,0.54088 0,0.24804 0.09646,0.41341 0.09991,0.16192 0.316949,0.29628 0.220486,0.13436 0.689019,0.30661 0.56155,0.20671 0.837158,0.40308 0.275608,0.19292 0.406521,0.44786 0.130914,0.25149 0.130914,0.60289 z"
         style="font-style:normal;font-variant:normal;font-weight:normal;font-stretch:normal;font-size:7.05555582px;font-family:sans-serif;-inkscape-font-specification:'sans-serif, Normal';font-variant-ligatures:normal;font-variant-caps:normal;font-variant-numeric:normal;font-feature-settings:normal;text-align:start;writing-mode:lr-tb;text-anchor:start;fill:#f8f8f8;fill-opacity:1;stroke:#f8f8f8;stroke-width:0.26458335px;stroke-opacity:1"
         id="path848" />
      <path
         d="m 26.768151,290.81306 q 0.251492,0 0.444418,0.0413 l -0.07579,0.57188 q -0.21015,-0.0482 -0.409966,-0.0482 -0.299723,0 -0.558105,0.16537 -0.254937,0.16536 -0.399631,0.45819 -0.144694,0.28939 -0.144694,0.64424 v 2.01882 h -0.620118 v -3.78271 h 0.509874 l 0.0689,0.69246 h 0.02756 q 0.217041,-0.37551 0.513319,-0.56844 0.296279,-0.19292 0.644233,-0.19292 z"
         style="font-style:normal;font-variant:normal;font-weight:normal;font-stretch:normal;font-size:7.05555582px;font-family:sans-serif;-inkscape-font-specification:'sans-serif, Normal';font-variant-ligatures:normal;font-variant-caps:normal;font-variant-numeric:normal;font-feature-settings:normal;text-align:start;writing-mode:lr-tb;text-anchor:start;fill:#f8f8f8;fill-opacity:1;stroke:#f8f8f8;stroke-width:0.26458335px;stroke-opacity:1"
         id="path850" />
      <path
         d="m 29.465661,294.73357 q -0.850939,0 -1.336697,-0.51331 -0.482313,-0.51677 -0.482313,-1.41938 0,-0.90951 0.451307,-1.44694 0.451308,-0.54088 1.219564,-0.54088 0.713135,0 1.136881,0.46164 0.423747,0.4582 0.423747,1.24368 v 0.37551 h -2.590712 q 0.01723,0.64424 0.327284,0.97841 0.310059,0.33418 0.8785,0.33418 0.303168,0 0.575331,-0.0517 0.272162,-0.0551 0.637342,-0.21015 v 0.54432 q -0.313503,0.13436 -0.589111,0.18948 -0.275608,0.0551 -0.651123,0.0551 z m -0.155029,-3.41408 q -0.444418,0 -0.7028,0.28594 -0.258382,0.28594 -0.306613,0.79582 h 1.925808 q -0.0069,-0.53055 -0.244602,-0.80616 -0.237711,-0.2756 -0.671793,-0.2756 z"
         style="font-style:normal;font-variant:normal;font-weight:normal;font-stretch:normal;font-size:7.05555582px;font-family:sans-serif;-inkscape-font-specification:'sans-serif, Normal';font-variant-ligatures:normal;font-variant-caps:normal;font-variant-numeric:normal;font-feature-settings:normal;text-align:start;writing-mode:lr-tb;text-anchor:start;fill:#f8f8f8;fill-opacity:1;stroke:#f8f8f8;stroke-width:0.26458335px;stroke-opacity:1"
         id="path852" />
      <path
         d="m 33.630782,294.73357 q -0.761366,0 -1.171333,-0.54777 h -0.04134 l 0.01378,0.14125 q 0.02756,0.26872 0.02756,0.47887 v 1.55374 h -0.620117 v -5.4777 h 0.509874 l 0.08268,0.51676 h 0.02756 q 0.220486,-0.31006 0.509874,-0.44786 0.289388,-0.1378 0.668349,-0.1378 0.73725,0 1.143772,0.51332 0.409966,0.50987 0.409966,1.44005 0,0.92673 -0.409966,1.44694 -0.409967,0.5202 -1.150662,0.5202 z m -0.103353,-3.4003 q -0.561551,0 -0.813043,0.31694 -0.248047,0.31695 -0.254937,0.99564 v 0.12058 q 0,0.76825 0.254937,1.11276 0.254937,0.34107 0.826823,0.34107 0.475423,0 0.740696,-0.38586 0.268717,-0.38585 0.268717,-1.07487 0,-0.69246 -0.268717,-1.05764 -0.265273,-0.36862 -0.754476,-0.36862 z"
         style="font-style:normal;font-variant:normal;font-weight:normal;font-stretch:normal;font-size:7.05555582px;font-family:sans-serif;-inkscape-font-specification:'sans-serif, Normal';font-variant-ligatures:normal;font-variant-caps:normal;font-variant-numeric:normal;font-feature-settings:normal;text-align:start;writing-mode:lr-tb;text-anchor:start;fill:#f8f8f8;fill-opacity:1;stroke:#f8f8f8;stroke-width:0.26458335px;stroke-opacity:1"
         id="path854" />
      <path
         d="m 36.800269,294.66467 h -0.620117 v -5.36057 h 0.620117 z"
         style="font-style:normal;font-variant:normal;font-weight:normal;font-stretch:normal;font-size:7.05555582px;font-family:sans-serif;-inkscape-font-specification:'sans-serif, Normal';font-variant-ligatures:normal;font-variant-caps:normal;font-variant-numeric:normal;font-feature-settings:normal;text-align:start;writing-mode:lr-tb;text-anchor:start;fill:#f8f8f8;fill-opacity:1;stroke:#f8f8f8;stroke-width:0.26458335px;stroke-opacity:1"
         id="path856" />
      <path
         d="m 38.619281,294.66467 h -0.620117 v -3.78271 h 0.620117 z m -0.668348,-4.80591 q 0,-0.2067 0.103352,-0.29972 0.106798,-0.093 0.261828,-0.093 0.144694,0 0.251492,0.093 0.110243,0.093 0.110243,0.29972 0,0.20327 -0.110243,0.29973 -0.106798,0.0965 -0.251492,0.0965 -0.15503,0 -0.261828,-0.0965 -0.103352,-0.0965 -0.103352,-0.29973 z"
         style="font-style:normal;font-variant:normal;font-weight:normal;font-stretch:normal;font-size:7.05555582px;font-family:sans-serif;-inkscape-font-specification:'sans-serif, Normal';font-variant-ligatures:normal;font-variant-caps:normal;font-variant-numeric:normal;font-feature-settings:normal;text-align:start;writing-mode:lr-tb;text-anchor:start;fill:#f8f8f8;fill-opacity:1;stroke:#f8f8f8;stroke-width:0.26458335px;stroke-opacity:1"
         id="path858" />
      <path
         d="m 41.334016,294.73357 q -0.816488,0 -1.27124,-0.49953 -0.454753,-0.50299 -0.454753,-1.44005 0,-0.95085 0.458198,-1.46417 0.461642,-0.51676 1.312581,-0.51676 0.275608,0 0.544325,0.0586 0.272163,0.0551 0.447863,0.1447 l -0.189481,0.51676 q -0.478868,-0.17914 -0.816487,-0.17914 -0.571886,0 -0.844049,0.36173 -0.272162,0.35829 -0.272162,1.07143 0,0.68557 0.272162,1.05075 0.272163,0.36173 0.806153,0.36173 0.499538,0 0.981852,-0.22048 v 0.55121 q -0.392741,0.20326 -0.974962,0.20326 z"
         style="font-style:normal;font-variant:normal;font-weight:normal;font-stretch:normal;font-size:7.05555582px;font-family:sans-serif;-inkscape-font-specification:'sans-serif, Normal';font-variant-ligatures:normal;font-variant-caps:normal;font-variant-numeric:normal;font-feature-settings:normal;text-align:start;writing-mode:lr-tb;text-anchor:start;fill:#f8f8f8;fill-opacity:1;stroke:#f8f8f8;stroke-width:0.26458335px;stroke-opacity:1"
         id="path860" />
      <path
         d="m 45.543923,294.66467 -0.120578,-0.53743 h -0.02756 q -0.282498,0.35484 -0.564996,0.48231 -0.279052,0.12402 -0.706244,0.12402 -0.558106,0 -0.875055,-0.29283 -0.316948,-0.29283 -0.316948,-0.82682 0,-1.15066 1.815565,-1.20578 l 0.640788,-0.0241 v -0.22393 q 0,-0.43064 -0.186035,-0.6339 -0.186035,-0.2067 -0.596002,-0.2067 -0.299723,0 -0.568441,0.0896 -0.265272,0.0896 -0.499538,0.19981 l -0.189481,-0.46508 q 0.285943,-0.15159 0.623563,-0.23772 0.337619,-0.0861 0.668348,-0.0861 0.685574,0 1.019748,0.30316 0.334175,0.30317 0.334175,0.96463 v 2.57693 z m -1.27813,-0.43063 q 0.520209,0 0.816487,-0.27906 0.299724,-0.28249 0.299724,-0.79926 v -0.34106 l -0.558106,0.0241 q -0.651123,0.0241 -0.950846,0.20671 -0.296278,0.18259 -0.296278,0.57533 0,0.29628 0.179145,0.45475 0.18259,0.15848 0.509874,0.15848 z"
         style="font-style:normal;font-variant:normal;font-weight:normal;font-stretch:normal;font-size:7.05555582px;font-family:sans-serif;-inkscape-font-specification:'sans-serif, Normal';font-variant-ligatures:normal;font-variant-caps:normal;font-variant-numeric:normal;font-feature-settings:normal;text-align:start;writing-mode:lr-tb;text-anchor:start;fill:#f8f8f8;fill-opacity:1;stroke:#f8f8f8;stroke-width:0.26458335px;stroke-opacity:1"
         id="path862" />
      <path
         d="m 48.427466,294.22715 q 0.120578,0 0.282498,-0.0241 0.161919,-0.0241 0.244602,-0.0551 v 0.47542 q -0.08613,0.0379 -0.268718,0.0723 -0.179145,0.0379 -0.36518,0.0379 -1.109321,0 -1.109321,-1.16788 v -2.20142 h -0.53399 v -0.29628 l 0.54088,-0.24804 0.248047,-0.80616 h 0.368625 v 0.86817 h 1.092096 v 0.48231 h -1.092096 v 2.18419 q 0,0.32729 0.15503,0.50299 0.158474,0.1757 0.437527,0.1757 z"
         style="font-style:normal;font-variant:normal;font-weight:normal;font-stretch:normal;font-size:7.05555582px;font-family:sans-serif;-inkscape-font-specification:'sans-serif, Normal';font-variant-ligatures:normal;font-variant-caps:normal;font-variant-numeric:normal;font-feature-settings:normal;text-align:start;writing-mode:lr-tb;text-anchor:start;fill:#f8f8f8;fill-opacity:1;stroke:#f8f8f8;stroke-width:0.26458335px;stroke-opacity:1"
         id="path864" />
      <path
         d="m 50.332607,294.66467 h -0.620118 v -3.78271 h 0.620118 z m -0.668349,-4.80591 q 0,-0.2067 0.103353,-0.29972 0.106798,-0.093 0.261827,-0.093 0.144694,0 0.251492,0.093 0.110243,0.093 0.110243,0.29972 0,0.20327 -0.110243,0.29973 -0.106798,0.0965 -0.251492,0.0965 -0.155029,0 -0.261827,-0.0965 -0.103353,-0.0965 -0.103353,-0.29973 z"
         style="font-style:normal;font-variant:normal;font-weight:normal;font-stretch:normal;font-size:7.05555582px;font-family:sans-serif;-inkscape-font-specification:'sans-serif, Normal';font-variant-ligatures:normal;font-variant-caps:normal;font-variant-numeric:normal;font-feature-settings:normal;text-align:start;writing-mode:lr-tb;text-anchor:start;fill:#f8f8f8;fill-opacity:1;stroke:#f8f8f8;stroke-width:0.26458335px;stroke-opacity:1"
         id="path866" />
      <path
         d="m 54.818119,292.76643 q 0,0.92673 -0.468533,1.44694 -0.468533,0.5202 -1.295356,0.5202 -0.51332,0 -0.909506,-0.23771 -0.396186,-0.24115 -0.609782,-0.68902 -0.213595,-0.44786 -0.213595,-1.04041 0,-0.92329 0.461642,-1.43661 0.461643,-0.51676 1.295356,-0.51676 0.799262,0 1.267795,0.5271 0.471979,0.52365 0.471979,1.42627 z m -2.855985,0 q 0,0.71313 0.279053,1.0852 0.282498,0.36863 0.830268,0.36863 0.54088,0 0.823378,-0.36863 0.282498,-0.37207 0.282498,-1.0852 0,-0.71314 -0.285943,-1.07143 -0.282498,-0.36173 -0.830268,-0.36173 -1.098986,0 -1.098986,1.43316 z"
         style="font-style:normal;font-variant:normal;font-weight:normal;font-stretch:normal;font-size:7.05555582px;font-family:sans-serif;-inkscape-font-specification:'sans-serif, Normal';font-variant-ligatures:normal;font-variant-caps:normal;font-variant-numeric:normal;font-feature-settings:normal;text-align:start;writing-mode:lr-tb;text-anchor:start;fill:#f8f8f8;fill-opacity:1;stroke:#f8f8f8;stroke-width:0.26458335px;stroke-opacity:1"
         id="path868" />
      <path
         d="m 58.380348,294.66467 v -2.41845 q 0,-0.46165 -0.206706,-0.68558 -0.20326,-0.22737 -0.640787,-0.22737 -0.582222,0 -0.847494,0.32383 -0.261827,0.3204 -0.261827,1.04731 v 1.96026 h -0.620117 v -3.78271 h 0.499538 l 0.09302,0.51676 h 0.03445 q 0.1757,-0.27905 0.492649,-0.43063 0.316948,-0.15503 0.699354,-0.15503 0.695909,0 1.033529,0.33762 0.337619,0.33761 0.337619,1.05075 v 2.46324 z"
         style="font-style:normal;font-variant:normal;font-weight:normal;font-stretch:normal;font-size:7.05555582px;font-family:sans-serif;-inkscape-font-specification:'sans-serif, Normal';font-variant-ligatures:normal;font-variant-caps:normal;font-variant-numeric:normal;font-feature-settings:normal;text-align:start;writing-mode:lr-tb;text-anchor:start;fill:#f8f8f8;fill-opacity:1;stroke:#f8f8f8;stroke-width:0.26458335px;stroke-opacity:1"
         id="path870" />
    </g>
  </g>
</svg>
